<?xml version="1.0" encoding="UTF-8"?> <!-- Generator: Adobe Illustrator 23.0.3, SVG Export Plug-In . SVG Version: 6.00 Build 0) --> <svg xmlns="http://www.w3.org/2000/svg" xmlns:xlink="http://www.w3.org/1999/xlink" id="Layer_1" x="0px" y="0px" viewBox="0 0 2100.004 500" style="enable-background:new 0 0 2100.004 500;" xml:space="preserve"> <rect x="1054" y="846" style="fill:#FFFFFF;" width="600" height="600"></rect> <path style="fill:#FAD500;" d="M164.202,961.57v246.667h370V961.57H164.202z"></path> <rect x="266.979" y="1084.904" style="fill:#231F20;" width="61.667" height="246.667"></rect> <rect x="369.757" y="1084.904" style="fill:#231F20;" width="61.667" height="246.667"></rect> <polygon style="fill:#231F20;" points="1054,1446 1054,1146 1354,1446 "></polygon> <polygon style="fill:#231F20;" points="1054,846 1654,1446 1654,1146 1354,846 "></polygon> <polygon style="fill:#231F20;" points="1774,946 1774,896 1824,946 "></polygon> <polygon style="fill:#231F20;" points="1774,846 1874,946 1874,896 1824,846 "></polygon> <path style="fill:#FAD500;" d="M0,0v333.333h500.662V0H0z"></path> <path style="fill:#FAD500;" d="M1682.781,0v500L2100,0H1682.781z"></path> <path style="fill:#FAD500;" d="M556.291,0v500h458.94L556.291,0z"></path> <path style="fill:#FAD500;" d="M1369.868,20.833c-145.935,0-264.238,118.147-264.238,263.889h528.477 C1634.106,138.98,1515.802,20.833,1369.868,20.833z"></path> <rect x="139.073" y="166.667" style="fill:#231F20;" width="83.444" height="333.333"></rect> <rect x="278.146" y="166.667" style="fill:#231F20;" width="83.444" height="333.333"></rect> <polygon style="fill:#231F20;" points="1738.411,268.776 1738.411,401.918 1817.531,500 1924.933,500 "></polygon> <polygon style="fill:#231F20;" points="1994.576,500 2100,500 1738.411,51.753 1738.411,182.442 "></polygon> <polygon style="fill:#231F20;" points="1056.954,0 702.154,295.276 758.837,357.031 1056.954,108.929 "></polygon> <polygon style="fill:#231F20;" points="1056.954,181.264 796.478,398.039 852.9,459.509 1056.954,289.69 "></polygon> <path style="fill:#231F20;" d="M1468.207,382.931c-25.167,25.134-59.936,40.68-98.339,40.68 c-76.808,0-139.073-62.183-139.073-138.889c0-38.353,15.566-73.075,40.734-98.209l-54.087-54.015 c-39.009,38.958-63.137,92.777-63.137,152.224c0,118.895,96.511,215.278,215.563,215.278c59.526,0,113.417-24.096,152.426-63.053 L1468.207,382.931z"></path> <path style="fill:#231F20;" d="M1310.864,225.797c-15.1,15.08-24.44,35.914-24.44,58.926c0,46.024,37.359,83.333,83.444,83.333 c23.042,0,43.903-9.327,59.004-24.408L1310.864,225.797z"></path> <g> </g> <g> </g> <g> </g> <g> </g> <g> </g> <g> </g> <g> </g> <g> </g> <g> </g> <g> </g> <g> </g> <g> </g> <g> </g> <g> </g> <g> </g> </svg> 